<svg xmlns="http://www.w3.org/2000/svg" viewBox="0 0 1024 1024" role="img" aria-label="TorDeck icon">
  <defs>
    <linearGradient id="bg" x1="0" y1="0" x2="1" y2="1">
      <stop offset="0%" stop-color="#2d0f66"/>
      <stop offset="55%" stop-color="#4f1ca8"/>
      <stop offset="100%" stop-color="#0f5f2a"/>
    </linearGradient>
    <linearGradient id="accent" x1="0" y1="0" x2="1" y2="1">
      <stop offset="0%" stop-color="#b5ff3a"/>
      <stop offset="100%" stop-color="#2cc94f"/>
    </linearGradient>
    <filter id="shadow" x="-50%" y="-50%" width="200%" height="200%">
      <feDropShadow dx="0" dy="20" stdDeviation="22" flood-opacity="0.45"/>
    </filter>
  </defs>

  <rect width="1024" height="1024" rx="210" fill="#06080f"/>

  <g filter="url(#shadow)">
    <path d="M196 590C320 530 384 486 512 426C640 486 704 530 828 590C704 650 640 694 512 754C384 694 320 650 196 590Z" fill="url(#bg)"/>
    <path d="M512 218L196 410V590L512 398V218Z" fill="#5f23c8"/>
    <path d="M512 218L828 410V590L512 398V218Z" fill="url(#accent)"/>
    <path d="M512 398L196 590L512 754L828 590L512 398Z" fill="url(#bg)" opacity="0.95"/>

    <rect x="274" y="476" width="184" height="36" rx="18" fill="#e8e8f5"/>
    <rect x="346" y="452" width="70" height="82" rx="14" fill="#f5f5ff" stroke="#15152a" stroke-width="7"/>
    <circle cx="310" cy="594" r="46" fill="#dbe2ff" stroke="#211640" stroke-width="8"/>
    <circle cx="442" cy="594" r="48" fill="#4cd34f" stroke="#0a1326" stroke-width="12"/>

    <path d="M600 430H700L652 554H746L590 768L636 602H552L600 430Z" fill="#f5faff"/>

    <ellipse cx="512" cy="820" rx="306" ry="54" fill="#57ff50" opacity="0.26"/>
    <path d="M168 656C254 780 410 838 584 826" stroke="#c873ff" stroke-width="12" fill="none" opacity="0.75"/>
    <path d="M744 692C848 650 906 566 888 460" stroke="#b9ff44" stroke-width="12" fill="none" opacity="0.75"/>
  </g>
</svg>
